<svg width="565" height="533" viewBox="0 0 565 533" fill="none" xmlns="http://www.w3.org/2000/svg">
<path d="M225.76 429.108C225.673 453.497 225.581 477.887 225.501 502.276C225.474 510.573 225.477 518.87 225.029 527.659C222.461 528.442 220.331 528.988 218.2 528.991C171.587 529.057 124.973 529.026 78.3604 529.146C74.3305 529.156 73.1487 527.622 73.267 523.829C73.4745 517.177 73.3113 510.513 73.3216 503.854C73.3712 471.894 73.4268 439.933 73.8831 407.973C87.9363 411.322 101.696 413.568 115.827 412.143C127.387 410.978 138.595 408.464 148.355 401.874C155.887 396.788 161.339 390.057 159.669 380.193C159.042 376.485 160.02 374.592 162.903 372.395C172.704 364.928 176.281 354.38 172.521 344.309C171.445 341.427 171.792 339.607 173.638 337.199C183.15 324.786 179.523 309.903 165.445 302.57C165.341 301.293 165.294 300.461 165.277 299.629C164.918 282.804 155.365 274.113 138.372 275.125C137.497 275.177 136.607 274.985 135.586 274.894C136.059 273.075 136.45 271.639 136.806 270.193C137.72 266.484 137.956 262.908 134.716 260.052C131.257 257.004 127.304 256.143 123.136 258.109C119.846 259.662 116.856 261.839 113.635 263.554C109.108 265.963 104.716 269.011 99.8689 270.362C84.1457 274.744 72.6532 265.932 72.2931 249.761C72.2189 246.432 72.1846 243.085 72.4342 239.769C72.824 234.593 73.4721 229.435 74.1348 223.079C65.6604 230.681 57.9873 237.363 54.623 247.364C50.9945 258.15 51.7725 268.469 58.6414 278.048C64.2279 285.839 72.4665 289.782 80.9698 292.449C91.0545 295.612 101.487 297.839 112.325 294.423C120.399 291.877 128.771 290.239 137.062 288.433C144.181 286.883 150.966 289.677 152.484 294.441C154.153 299.675 151.507 304.602 143.528 307.334C132.248 311.197 120.634 314.158 109.04 317.002C104.084 318.218 98.8167 318.169 93.6909 318.694C102.886 324.352 112.697 323.31 122.857 322.944C130.558 321.375 137.871 319.894 145.095 318.063C148.623 317.169 151.91 315.325 155.438 314.438C162.919 312.555 167.839 317.801 165.966 325.349C164.77 330.17 161.584 333.379 157.087 334.713C144.692 338.39 132.304 342.261 119.673 344.909C111.542 346.614 102.988 346.295 94.6234 346.884C96.1353 348.57 97.9045 349.617 99.8163 350.173C114.303 354.391 128.745 353.671 143.14 349.598C146.494 348.649 149.84 347.552 153.266 347.013C156.634 346.483 160.198 346.715 161.81 350.478C163.425 354.245 162.493 357.922 159.397 360.429C156.598 362.694 153.398 364.679 150.068 366.034C136.137 371.705 121.497 373.461 106.552 373.39C102.55 373.371 98.5463 373.822 94.5435 374.057C94.4717 374.554 94.3999 375.051 94.3281 375.548C96.3582 376.471 98.3084 377.88 100.433 378.229C108.099 379.486 115.803 380.956 123.533 381.235C129.442 381.448 135.398 379.77 141.362 379.39C143.244 379.27 146.347 380.16 146.877 381.428C147.598 383.157 147.123 386.384 145.851 387.733C143.419 390.311 140.299 392.552 137.047 393.991C124.638 399.484 111.513 401.489 98.0271 400.316C89.6059 399.584 81.2437 398.172 72.4943 397.108C65.9727 394.698 59.6836 392.522 53.6716 389.747C8.57669 368.925 -8.09445 314.837 11.642 272.188C21.3841 251.136 36.1311 233.927 51.6549 217.214C65.9444 201.829 73.6695 184.22 73.4844 162.765C73.0431 111.613 73.3529 60.4546 73.3593 9.29907C73.3595 7.37226 73.3593 5.44547 73.3593 3.39875C75.0884 3.22309 76.0602 3.0384 77.032 3.0381C108.858 3.02792 140.685 2.97882 172.511 3.11891C176.106 3.13473 179.762 3.9755 183.279 4.87062C202.786 9.83547 215.831 22.858 225.664 39.5917C244.116 70.992 262.469 102.451 280.705 133.977C283.656 139.079 285.792 144.652 288.305 150.007C288.305 150.007 288.38 149.969 287.983 149.978C275.083 157.777 262.185 165.006 250.167 173.481C229.819 187.831 214.165 206.287 205.215 229.852C203.488 234.4 201.076 239.062 203.445 244.561C201.696 249.278 199.949 253.637 197.994 258.197C197.67 258.956 197.553 259.513 197.229 260.362C196.201 263.788 195.383 266.922 194.401 270.422C193.524 275.152 192.81 279.517 191.756 284.03C190.444 289.493 188.803 294.784 188.617 300.125C187.779 324.182 190.804 347.506 203.711 368.554C209.607 378.169 215.493 387.845 225.446 394.536C225.578 406.371 225.669 417.739 225.76 429.108Z" fill="#9AE0B5"/>
<path d="M192.096 283.882C192.81 279.518 193.524 275.154 194.752 270.353C195.989 266.636 196.713 263.354 197.437 260.072C197.553 259.515 197.67 258.957 198.354 258.185C201.145 254.306 203.3 250.598 205.62 246.997C206.78 245.196 208.223 243.575 209.57 241.898C211.682 239.269 214.772 236.977 215.767 233.984C218.465 225.867 222.442 218.737 228.315 212.541C229.424 211.372 229.672 209.387 230.356 207.574C230.541 207.097 230.767 206.957 231.451 206.962C234.415 205.009 238.781 204.66 238.32 199.947C238.367 200.013 238.234 199.92 238.613 199.963C239.916 199.724 240.953 199.622 241.746 199.129C246.204 196.364 250.655 193.581 255.009 190.657C260.32 187.091 266.015 183.902 270.678 179.609C278.001 172.869 286.219 168.001 295.258 164.007C304.237 160.039 313.28 156.671 322.976 154.917C330.734 153.514 332.161 154.409 333.463 161.934C334.322 166.895 336.004 171.709 337.17 176.623C337.607 178.463 337.871 180.412 337.792 182.293C337.418 191.188 334.437 199.357 330.542 207.246C330.542 207.246 330.514 207.148 330.3 207.246C329.901 207.655 329.716 207.967 329.532 208.279C329.532 208.279 329.518 208.174 329.211 208.173C327.406 209.784 325.907 211.395 324.23 213.294C320.666 215.674 317.308 217.808 313.892 219.848C297.063 229.896 280.372 240.047 268.027 255.877C256.409 270.775 247.722 286.899 245.331 305.931C240.552 328.075 248.079 347.489 259.661 365.493C265.274 374.22 272.928 381.642 279.727 389.595C281.714 391.921 283.937 394.044 285.581 396.984C264.287 397.069 246.396 388.58 229.388 375.957C227.558 374.719 226.236 373.856 224.903 372.673C224.103 371.5 223.347 370.613 222.518 369.801C207.067 354.683 196.995 336.685 194.271 315.107C192.966 304.772 192.785 294.295 192.096 283.882Z" fill="#1E4D57"/>
<path d="M502.358 372.009C502.361 376.105 502.364 380.201 501.958 384.77C499.845 385.926 498.142 386.609 496.156 387.314C495.01 387.726 494.148 388.117 492.896 388.61C478.009 393.502 463.151 394.478 448.161 392.181C440.841 391.059 433.682 388.888 426.259 387.115C426.067 387.037 425.655 387.001 425.53 386.75C425.087 386.313 424.769 386.125 424.331 385.659C423.643 385.218 423.077 385.055 422.349 384.604C415.432 377.423 410.069 370.009 412.709 361.568C408.029 355.476 403.613 350.936 400.677 345.584C397.373 339.562 399.794 333.372 403.153 327.971C388.884 314.407 390.408 301.169 406.896 291.318C407.907 290.714 408.875 289.157 408.943 287.99C409.578 276.997 414.965 270.073 425.621 267.235C428.763 266.398 432.037 266.061 435.231 265.499C434.912 262.653 434.433 260.03 434.357 257.394C434.133 249.589 439.181 245.716 446.737 247.868C448.962 248.502 451.092 249.471 453.311 250.263C453.356 250.241 453.26 250.209 453.445 250.497C459.042 253.28 464.24 256.547 469.909 258.126C487.023 262.892 500.828 253.975 502.363 236.322C503.317 225.344 501.748 214.146 501.665 202.912C513.046 211.037 518.447 222.597 520.612 235.739C522.736 248.626 518.85 259.797 509.219 268.736C502.617 274.863 494.737 278.731 486.057 280.991C472.659 284.48 459.341 283.13 445.961 280.615C440.454 279.579 434.763 279.125 429.158 279.138C425.437 279.148 421.89 281.609 422.001 285.459C422.082 288.294 424.299 291.331 426.229 293.747C427.326 295.119 429.691 295.769 431.603 296.147C442.519 298.303 453.424 300.593 464.428 302.183C469.798 302.959 475.374 302.318 480.857 302.318C480.858 302.764 480.859 303.209 480.86 303.655C479.294 304.079 477.745 304.585 476.16 304.915C456.719 308.961 437.44 308.239 418.382 302.689C414.025 301.42 410.263 301.857 407.971 305.97C405.731 309.99 406.863 313.996 410.296 316.723C412.961 318.84 416.167 320.627 419.419 321.595C439.033 327.431 459.006 330.522 479.551 328.551C480.094 328.499 480.721 329.314 480.923 329.797C473.543 331.605 466.616 334.381 459.539 334.842C447.679 335.616 435.738 334.815 424 332.323C419.961 331.465 416.107 332.292 414.093 336.144C411.964 340.216 413.914 343.645 417.417 345.992C419.597 347.453 422.039 348.797 424.556 349.429C431.16 351.085 437.812 352.768 444.549 353.628C456.581 355.164 468.698 356.364 480.882 352.344C482.342 353.571 482.366 353.617 480.799 354.449C469.604 360.398 457.659 362.471 445.076 361.492C440.442 361.131 435.738 360.705 431.148 361.153C429.106 361.353 425.959 363.408 425.668 365.041C425.306 367.069 426.844 370.14 428.546 371.649C430.539 373.417 433.517 374.244 436.197 375.039C457.94 381.483 479.293 378.997 500.747 372.027C501.5 372.022 501.929 372.015 502.358 372.009Z" fill="#9BDEB9"/>
<path d="M333.344 228.096C337.741 235.081 342.096 242.094 346.564 249.034C347.684 250.775 349.166 252.282 350.911 254.321C351.055 257.184 350.769 259.624 350.318 262.394C343.351 282.849 329.71 296.315 309.759 303.103C299.555 306.574 288.973 308.921 278.604 311.922C272.232 313.766 266.508 316.666 263.023 322.732C262.594 321.815 262.402 321.17 262.382 320.52C261.711 298.488 270.879 280.26 284.86 264.178C298.343 248.669 316.403 239.082 333.344 228.096Z" fill="#9AE0B5"/>
<path d="M288.622 149.783C285.793 144.651 283.657 139.079 280.706 133.977C262.47 102.451 244.117 70.9913 225.665 39.5911C215.831 22.8573 202.787 9.83486 183.28 4.87C179.763 3.97488 176.107 3.13411 172.512 3.11829C140.686 2.9782 108.859 3.0273 77.0328 3.03748C76.061 3.03778 75.0892 3.22247 73.3601 3.39813C73.3601 5.44485 73.3603 7.37164 73.3601 9.29845C73.3537 60.454 73.0439 111.612 73.4852 162.764C73.6703 184.22 65.9452 201.828 51.6557 217.213C36.1319 233.927 21.3849 251.135 11.6428 272.187C-8.09366 314.836 8.57749 368.924 53.6724 389.746C59.6844 392.522 65.9735 394.698 72.5565 397.562C73.1462 401.305 73.3136 404.639 73.4811 407.972C73.4276 439.933 73.372 471.893 73.3224 503.854C73.3121 510.513 73.4753 517.176 73.2678 523.829C73.1495 527.622 74.3313 529.156 78.3612 529.145C124.974 529.025 171.587 529.056 218.2 528.99C220.331 528.987 222.462 528.442 225.014 528.129C224.199 529.011 223.046 530.52 221.71 530.706C216.802 531.389 211.83 532.005 206.887 531.967C195.514 531.881 184.142 531.106 172.771 531.143C156.912 531.194 141.056 531.844 125.196 532.024C110.941 532.187 96.6764 531.801 82.4284 532.155C73.0419 532.389 69.2059 526.916 69.4005 518.727C69.5132 513.983 69.3498 509.232 69.4417 504.487C69.6721 492.583 70.2388 480.678 70.1955 468.776C70.1142 446.375 69.7663 423.973 69.2713 401.578C69.2374 400.047 67.3426 397.685 65.832 397.196C51.2515 392.473 37.8904 385.533 27.0447 374.684C22.1233 369.761 18.5072 363.5 14.5018 357.706C12.0129 354.106 9.5709 350.403 7.6829 346.47C-0.285306 329.87 -0.893826 312.052 0.720981 294.285C1.39835 286.833 4.33573 279.272 7.65811 272.448C12.5477 262.405 17.9033 252.387 24.5216 243.44C32.6059 232.51 42.4711 222.917 51.0497 212.327C56.7598 205.279 61.8239 197.66 66.6411 189.96C68.3728 187.193 69.1515 183.473 69.3061 180.138C69.86 168.191 70.163 156.222 70.1728 144.261C70.1819 133.132 69.4554 122.002 69.4928 110.874C69.5334 98.8074 70.3934 86.7411 70.3427 74.677C70.2487 52.2796 69.7321 29.8842 69.4386 7.48731C69.366 1.95085 71.0979 0.114351 76.836 0.10373C110.502 0.0414751 144.172 -0.149977 177.834 0.228959C186.304 0.324327 193.815 4.74703 201.002 9.13658C216.438 18.5655 225.806 32.9621 233.831 48.6198C238.057 56.8661 243.095 64.697 247.782 72.7064C256.592 87.762 265.429 102.802 274.222 117.867C278.553 125.287 283.049 132.627 286.979 140.256C288.378 142.973 288.327 146.437 288.622 149.783Z" fill="#1A484E"/>
<path d="M333.245 227.759C316.404 239.082 298.344 248.669 284.861 264.178C270.88 280.26 261.712 298.488 262.383 320.52C262.403 321.171 262.595 321.815 262.949 323.093C262.904 325.149 262.617 326.575 262.068 328.214C261.466 328.723 261.127 329.019 260.787 329.314C256.515 322.515 252.246 315.712 247.966 308.917C247.355 307.948 246.687 307.013 245.689 305.997C247.724 286.899 256.411 270.775 268.029 255.877C280.374 240.047 297.065 229.896 313.894 219.848C317.309 217.808 320.668 215.674 324.464 213.276C324.874 212.969 325.337 213.028 325.337 213.028C327.94 217.826 330.543 222.623 333.245 227.759Z" fill="#62A089"/>
<path d="M350.484 262.062C350.77 259.623 351.055 257.183 351.247 254.349C351.237 215.975 351.347 177.995 351.395 140.016C351.451 95.7037 351.452 51.3913 351.476 7.07904C351.477 5.92386 351.476 4.76868 351.476 3.22656C401.744 3.22656 451.776 3.22656 502.412 3.22656C502.412 4.91679 502.411 6.674 502.412 8.43121C502.427 49.4117 502.804 90.3965 502.32 131.371C502.039 155.114 509.275 175.809 523.782 194.287C528.717 200.573 533.476 206.996 538.359 213.719C538.403 214.081 538.351 214.13 538.009 214.074C530.535 205.59 522.716 197.635 516.498 188.58C511.92 181.915 509.34 173.854 506.043 166.339C501.994 157.111 500.47 147.314 500.45 137.328C500.368 96.1845 500.42 55.0412 500.416 13.8979C500.415 6.4673 500.006 6.07585 492.399 6.0742C474.801 6.07042 457.202 6.07233 439.604 6.07227C413.119 6.07216 386.634 6.06242 360.149 6.07957C353.786 6.08369 353.427 6.47783 353.427 12.9297C353.424 77.2264 353.425 141.523 353.425 205.82C353.425 220.645 353.623 235.474 353.286 250.292C353.196 254.234 351.463 258.14 350.484 262.062Z" fill="#1A484E"/>
<path d="M260.883 329.684C261.125 329.019 261.465 328.723 262.356 328.451C264.569 332.036 265.833 335.861 267.978 339.103C271.976 345.146 276.957 350.568 280.646 356.774C284.21 362.768 286.265 369.645 289.693 375.735C294.796 384.8 300.682 393.421 305.951 402.397C316.144 419.763 326.152 437.239 336.213 454.683C341.745 464.274 347.145 473.943 352.766 483.481C355.541 488.19 357.971 493.473 361.896 497.011C364.74 499.575 366.02 502.118 367.131 505.397C369.474 512.311 373.117 519.455 379.935 521.636C389.559 524.714 399.902 526.017 410.039 526.879C419.966 527.723 430.022 527.066 440.021 527.058C441.352 527.057 442.846 527.382 443.989 526.9C450.337 524.221 456.696 525.713 463.113 526.387C467.293 526.825 471.83 527.692 475.678 526.564C481.575 524.836 487.114 526.023 492.695 526.785C499.222 527.676 500.406 527.072 500.408 520.495C500.414 479.667 500.42 438.839 500.403 398.011C500.401 393.978 501.487 389.484 496.439 387.292C498.142 386.609 499.844 385.926 501.892 385.24C502.241 431.534 502.187 477.831 502.345 524.127C502.36 528.308 500.799 529.182 497.129 529.177C462.324 529.126 427.518 529.166 392.712 529.219C384.232 529.232 377.576 525.51 372.498 519.06C368.905 514.496 365.579 509.663 362.639 504.654C330.22 449.438 297.894 394.168 265.574 338.895C263.9 336.031 262.505 333.004 260.883 329.684Z" fill="#1A484E"/>
<path d="M231.078 206.949C230.769 206.955 230.542 207.095 230.055 207.734C220.959 220.134 212.204 232.168 203.45 244.202C201.078 239.062 203.489 234.399 205.216 229.852C214.166 206.287 229.82 187.831 250.168 173.481C262.187 165.006 275.085 157.776 287.946 149.961C286.523 152.514 284.741 155.094 282.69 157.869C282.421 158.066 282.423 158.068 282.423 158.068C279.036 156.939 270.986 160.93 270.679 164.069C270.593 164.957 271.419 166.113 272.127 166.862C273.438 168.251 274.971 169.431 276.256 171.318C262.34 179.725 249.509 188.768 238.235 199.918C238.235 199.918 238.369 200.012 238.012 200.072C235.463 202.404 233.271 204.676 231.078 206.949Z" fill="#1A484E"/>
<path d="M191.757 284.029C192.787 294.293 192.967 304.77 194.272 315.105C196.996 336.683 207.068 354.682 222.519 369.799C223.349 370.611 224.104 371.499 224.97 373.082C225.237 374.905 225.428 375.996 225.619 377.087C225.607 378.167 225.595 379.246 225.554 381.175C225.485 386.038 225.445 390.054 225.406 394.069C215.494 387.844 209.608 378.168 203.712 368.554C190.805 347.505 187.78 324.182 188.618 300.125C188.804 294.783 190.445 289.492 191.757 284.029Z" fill="#62A089"/>
<path d="M238.613 199.961C249.508 188.767 262.339 179.725 276.308 171.683C296.441 161.963 316.365 152.497 337.421 142.494C338.673 148.996 340.194 154.883 340.878 160.866C342.434 174.483 340.826 187.787 335.437 200.472C334.43 202.842 332.64 204.88 330.877 207.158C334.438 199.355 337.418 191.186 337.792 182.291C337.871 180.41 337.607 178.461 337.171 176.621C336.005 171.707 334.322 166.893 333.464 161.933C332.161 154.407 330.734 153.512 322.977 154.915C313.28 156.669 304.237 160.038 295.259 164.005C286.219 167.999 278.002 172.867 270.679 179.608C266.015 183.9 260.321 187.089 255.01 190.655C250.655 193.579 246.205 196.362 241.747 199.128C240.953 199.62 239.917 199.722 238.613 199.961Z" fill="#1A484E"/>
<path d="M502.673 371.816C501.929 372.015 501.5 372.022 500.805 371.678C502.538 370.271 504.598 369.312 506.526 368.138C510.148 365.933 513.824 363.781 517.244 361.287C523.048 357.055 528.657 352.557 534.384 348.219C535.281 347.539 536.688 347.352 537.318 346.525C542.199 340.117 547.374 333.87 551.574 327.031C554.008 323.067 555.373 318.203 556.218 313.562C557.765 305.065 558.567 296.432 559.7 287.859C559.741 287.553 559.938 287.209 560.167 286.996C563.664 283.735 562.559 279.586 562.077 275.744C561.485 271.035 560.876 266.206 559.318 261.765C555.957 252.186 552.23 242.715 548.178 233.407C545.305 226.806 541.654 220.545 538.351 214.132C538.351 214.132 538.403 214.083 538.43 214.059C556.748 237.974 568.09 264.507 563.792 295.066C558.593 332.026 538.304 358.056 502.673 371.816Z" fill="#1A484E"/>
<path d="M225.447 394.537C225.446 390.055 225.486 386.04 225.627 381.576C227.396 388.211 228.689 395.22 227.666 402.667C227.03 407.295 228.462 412.17 228.31 416.914C228.181 420.911 227.106 424.878 226.106 428.983C225.671 417.74 225.58 406.372 225.447 394.537Z" fill="#1A484E"/>
<path d="M325.6 212.825C325.335 213.026 324.873 212.968 324.641 212.986C325.908 211.393 327.407 209.782 329.263 208.188C328.368 209.677 327.116 211.151 325.6 212.825Z" fill="#1A484E"/>
<path d="M225.934 377.085C225.427 375.997 225.235 374.906 224.979 373.404C226.236 373.856 227.558 374.719 229.056 375.866C228.238 376.461 227.244 376.771 225.934 377.085Z" fill="#1A484E"/>
<path d="M282.418 158.064C282.326 158.1 282.235 158.137 282.283 158.121C282.422 158.068 282.418 158.064 282.418 158.064Z" fill="#1A484E"/>
<path d="M329.794 208.182C329.718 207.965 329.902 207.653 330.352 207.25C330.429 207.468 330.242 207.778 329.794 208.182Z" fill="#1A484E"/>
<path d="M122.433 322.888C112.698 323.311 102.887 324.353 93.6916 318.695C98.8174 318.169 104.084 318.218 109.041 317.003C120.635 314.158 132.248 311.198 143.529 307.335C151.507 304.603 154.154 299.676 152.485 294.441C150.967 289.678 144.181 286.884 137.063 288.434C128.772 290.239 120.4 291.878 112.326 294.423C101.488 297.84 91.0551 295.612 80.9705 292.45C72.4672 289.783 64.2285 285.84 58.6421 278.049C51.7732 268.47 50.9951 258.151 54.6236 247.364C57.9879 237.363 65.661 230.681 74.1355 223.08C73.4727 229.436 72.8247 234.593 72.4349 239.77C72.1853 243.086 72.2196 246.432 72.2937 249.761C72.6538 265.933 84.1464 274.745 99.8696 270.363C104.716 269.012 109.108 265.964 113.635 263.554C116.857 261.84 119.846 259.663 123.137 258.11C127.305 256.143 131.258 257.004 134.717 260.053C137.957 262.909 137.721 266.485 136.806 270.194C136.45 271.639 136.06 273.076 135.587 274.895C136.607 274.985 137.497 275.178 138.373 275.126C155.366 274.114 164.919 282.805 165.277 299.629C165.295 300.462 165.342 301.293 165.178 302.782C165.667 309.701 163.64 311.873 157.094 312.094C155.478 312.149 153.822 312.398 152.275 312.861C143.311 315.546 134.365 318.293 125.438 321.101C124.356 321.442 123.431 322.28 122.433 322.888Z" fill="#194E52"/>
<path d="M122.859 322.944C123.432 322.28 124.357 321.441 125.439 321.1C134.366 318.292 143.312 315.545 152.276 312.86C153.823 312.397 155.479 312.148 157.094 312.093C163.641 311.872 165.668 309.7 165.249 303.227C179.524 309.903 183.152 324.786 173.639 337.199C171.794 339.607 171.446 341.427 172.522 344.309C176.283 354.38 172.705 364.927 162.904 372.395C160.021 374.591 159.043 376.485 159.671 380.193C161.341 390.056 155.888 396.788 148.357 401.873C138.597 408.464 127.389 410.978 115.829 412.143C101.697 413.568 87.9378 411.322 73.8846 407.973C73.3143 404.639 73.1469 401.305 72.918 397.518C81.2452 398.171 89.6074 399.583 98.0286 400.316C111.515 401.489 124.639 399.483 137.049 393.991C140.3 392.552 143.421 390.311 145.853 387.732C147.125 386.384 147.6 383.157 146.878 381.428C146.349 380.16 143.245 379.27 141.364 379.39C135.4 379.769 129.444 381.448 123.535 381.235C115.805 380.956 108.1 379.485 100.434 378.228C98.3099 377.88 96.3597 376.47 94.3296 375.548C94.4014 375.051 94.4732 374.554 94.545 374.057C98.5478 373.822 102.552 373.37 106.553 373.389C121.498 373.46 136.139 371.705 150.07 366.034C153.399 364.678 156.6 362.694 159.398 360.428C162.495 357.922 163.426 354.245 161.812 350.477C160.199 346.714 156.636 346.483 153.268 347.013C149.841 347.552 146.495 348.649 143.141 349.598C128.747 353.671 114.305 354.391 99.8178 350.173C97.906 349.616 96.1368 348.57 94.6249 346.884C102.989 346.295 111.544 346.613 119.674 344.909C132.306 342.261 144.694 338.39 157.089 334.713C161.585 333.379 164.772 330.17 165.968 325.349C167.84 317.801 162.92 312.555 155.44 314.437C151.912 315.325 148.624 317.169 145.097 318.063C137.873 319.894 130.56 321.375 122.859 322.944ZM140.526 397.244C138.079 397.4 135.559 397.234 133.2 397.772C126.149 399.381 119.13 401.154 112.173 403.124C110.506 403.596 107.854 405.092 107.861 406.1C107.881 408.843 109.942 410.638 112.958 410.026C121.31 408.332 129.715 406.785 137.904 404.485C140.088 403.871 143.379 401.559 140.526 397.244Z" fill="#1A484E"/>
<path d="M203.446 244.561C212.203 232.169 220.957 220.135 230.014 207.939C229.672 209.387 229.424 211.371 228.316 212.54C222.443 218.737 218.466 225.866 215.767 233.983C214.772 236.977 211.683 239.268 209.57 241.897C208.223 243.574 206.78 245.196 205.62 246.996C203.3 250.598 201.146 254.305 198.562 257.982C199.949 253.637 201.696 249.278 203.446 244.561Z" fill="#1A484E"/>
<path d="M197.23 260.361C196.715 263.352 195.991 266.634 194.916 269.986C195.384 266.922 196.203 263.787 197.23 260.361Z" fill="#1A484E"/>
<path d="M231.451 206.961C233.269 204.677 235.462 202.405 237.964 200.006C238.781 204.659 234.415 205.008 231.451 206.961Z" fill="#1A484E"/>
<path d="M538.009 214.075C541.654 220.544 545.305 226.806 548.178 233.406C552.23 242.714 555.957 252.186 559.318 261.764C560.877 266.205 561.485 271.034 562.077 275.744C562.559 279.585 563.665 283.735 560.168 286.995C559.938 287.209 559.741 287.552 559.7 287.858C558.567 296.432 557.766 305.064 556.218 313.561C555.373 318.202 554.008 323.066 551.574 327.03C547.374 333.87 542.2 340.117 537.318 346.524C536.688 347.351 535.282 347.538 534.384 348.218C528.657 352.557 523.048 357.055 517.245 361.287C513.824 363.78 510.149 365.932 506.526 368.137C504.598 369.311 502.539 370.271 500.481 371.676C479.293 378.997 457.94 381.483 436.198 375.038C433.517 374.244 430.539 373.416 428.547 371.649C426.844 370.139 425.306 367.069 425.668 365.041C425.96 363.408 429.106 361.352 431.149 361.153C435.738 360.705 440.442 361.13 445.077 361.491C457.659 362.471 469.605 360.397 480.799 354.449C482.367 353.616 482.342 353.57 480.644 352.013C473.858 351.824 467.602 352.254 461.379 351.973C455.618 351.713 449.866 350.855 444.159 349.956C439.525 349.225 434.906 348.243 430.387 346.99C427.435 346.171 424.33 345.133 421.92 343.347C419.413 341.49 420.468 337.843 423.555 337.283C427.445 336.577 431.446 336.158 435.396 336.185C441.521 336.226 447.7 337.421 453.751 336.901C461.952 336.195 470.074 334.438 478.174 332.845C479.377 332.609 480.272 330.803 481.309 329.723C480.721 329.313 480.095 328.499 479.551 328.551C459.006 330.521 439.033 327.43 419.42 321.594C416.167 320.626 412.961 318.839 410.296 316.722C406.864 313.996 405.732 309.989 407.971 305.97C410.263 301.856 414.025 301.42 418.383 302.689C437.441 308.238 456.719 308.96 476.16 304.915C477.745 304.585 479.294 304.079 480.86 303.655C480.859 303.209 480.858 302.763 480.857 302.317C475.375 302.317 469.799 302.959 464.428 302.183C453.425 300.593 442.519 298.303 431.604 296.147C429.692 295.769 427.326 295.118 426.23 293.746C424.3 291.331 422.083 288.294 422.001 285.459C421.891 281.608 425.438 279.147 429.158 279.138C434.764 279.124 440.454 279.578 445.962 280.614C459.341 283.13 472.659 284.479 486.057 280.99C494.738 278.73 502.617 274.863 509.219 268.736C518.85 259.797 522.736 248.626 520.613 235.738C518.447 222.596 513.047 211.036 501.291 203.009C499.969 211.717 498.296 220.299 499.126 228.631C499.776 235.156 500.642 240.717 495.272 245.517C494.092 246.572 493.429 248.199 492.487 249.533C491.36 251.129 490.527 253.283 488.979 254.176C480.482 259.078 471.875 257.549 463.321 254.042C460.002 252.681 456.616 251.481 453.261 250.208C453.261 250.208 453.356 250.24 453.33 249.879C450.188 245.575 444.481 244.037 439.139 245.7C435.302 246.895 429.398 254.054 429.531 258.275C429.66 262.369 428.118 264.381 424.246 265.268C413.93 267.632 408.757 274.96 406.845 284.69C406.195 287.998 404.897 290.055 402.183 291.636C393.199 296.869 389.138 307.009 392.763 316.857C395.657 324.72 399.493 331.984 395.564 340.468C395.449 340.717 395.565 341.15 395.706 341.431C399.174 348.333 402.628 355.242 406.159 362.112C407.452 364.626 409.782 366.918 410.168 369.529C411.234 376.734 416.396 380.844 420.951 385.488C421.106 385.647 421.974 385.106 422.51 384.892C423.077 385.054 423.644 385.217 424.449 385.917C425.01 386.636 425.333 386.818 425.656 387C425.656 387 426.068 387.037 426.425 387.421C428.005 388.564 429.137 389.693 430.467 390.023C441.437 392.738 452.329 396.328 463.477 397.569C471.264 398.435 479.504 396.453 487.349 394.817C489.666 394.334 491.325 390.698 493.286 388.507C494.148 388.116 495.01 387.726 496.156 387.313C501.488 389.483 500.402 393.978 500.404 398.01C500.421 438.838 500.415 479.666 500.408 520.494C500.407 527.071 499.223 527.675 492.696 526.784C487.115 526.023 481.576 524.836 475.679 526.564C471.831 527.691 467.294 526.825 463.114 526.386C456.697 525.712 450.338 524.22 443.99 526.899C442.847 527.381 441.353 527.056 440.022 527.057C430.023 527.065 419.967 527.722 410.04 526.878C399.903 526.017 389.56 524.714 379.936 521.636C373.117 519.455 369.475 512.31 367.132 505.396C366.021 502.118 364.741 499.574 361.897 497.011C357.972 493.472 355.542 488.19 352.767 483.48C347.146 473.942 341.746 464.274 336.214 454.682C326.153 437.238 316.145 419.763 305.951 402.396C300.683 393.42 294.797 384.799 289.694 375.734C286.266 369.645 284.211 362.767 280.647 356.773C276.958 350.568 271.977 345.145 267.979 339.103C265.834 335.86 264.57 332.036 262.619 328.237C262.617 326.574 262.904 325.148 263.265 323.362C266.509 316.666 272.233 313.766 278.604 311.922C288.973 308.92 299.556 306.574 309.759 303.102C329.711 296.315 343.351 282.848 350.319 262.393C351.463 258.141 353.196 254.235 353.286 250.292C353.623 235.475 353.425 220.646 353.425 205.821C353.426 141.524 353.424 77.2273 353.427 12.9306C353.428 6.47872 353.786 6.08459 360.15 6.08047C386.635 6.06332 413.12 6.07305 439.605 6.07316C457.203 6.07322 474.801 6.07131 492.399 6.0751C500.006 6.07675 500.416 6.4682 500.416 13.8988C500.42 55.0421 500.369 96.1854 500.45 137.329C500.47 147.315 501.995 157.112 506.043 166.34C509.34 173.855 511.921 181.916 516.498 188.581C522.716 197.636 530.535 205.591 538.009 214.075Z" fill="#1E4E58"/>
<path d="M422.349 384.604C421.974 385.106 421.106 385.647 420.95 385.488C416.395 380.844 411.233 376.734 410.167 369.529C409.781 366.918 407.451 364.626 406.159 362.112C402.628 355.242 399.174 348.333 395.706 341.431C395.565 341.151 395.448 340.717 395.564 340.468C399.492 331.984 395.656 324.721 392.762 316.857C389.138 307.009 393.199 296.869 402.183 291.636C404.897 290.055 406.195 287.999 406.845 284.69C408.757 274.96 413.929 267.632 424.246 265.268C428.118 264.381 429.66 262.37 429.53 258.276C429.397 254.055 435.302 246.895 439.139 245.7C444.48 244.037 450.188 245.575 453.285 249.902C451.092 249.47 448.962 248.501 446.737 247.867C439.181 245.716 434.133 249.588 434.357 257.394C434.433 260.029 434.912 262.653 435.231 265.499C432.037 266.061 428.763 266.398 425.621 267.234C414.965 270.072 409.578 276.996 408.943 287.99C408.875 289.157 407.907 290.713 406.895 291.317C390.408 301.169 388.884 314.406 403.153 327.971C399.794 333.371 397.373 339.562 400.677 345.583C403.613 350.935 408.029 355.476 412.708 361.568C410.069 370.009 415.432 377.423 422.349 384.604Z" fill="#1A484E"/>
<path d="M480.924 329.797C480.272 330.803 479.377 332.609 478.174 332.846C470.075 334.438 461.952 336.195 453.751 336.901C447.701 337.422 441.521 336.226 435.396 336.185C431.447 336.159 427.445 336.577 423.555 337.283C420.468 337.843 419.413 341.491 421.92 343.348C424.331 345.133 427.435 346.172 430.387 346.99C434.907 348.243 439.525 349.226 444.159 349.956C449.867 350.856 455.618 351.714 461.379 351.974C467.603 352.254 473.859 351.824 480.34 352.035C468.699 356.364 456.581 355.163 444.55 353.627C437.813 352.767 431.161 351.085 424.557 349.428C422.04 348.797 419.597 347.453 417.417 345.992C413.915 343.645 411.965 340.216 414.094 336.143C416.107 332.292 419.961 331.465 424.001 332.323C435.738 334.815 447.68 335.616 459.54 334.842C466.617 334.381 473.543 331.605 480.924 329.797Z" fill="#1A484E"/>
<path d="M453.445 250.496C456.616 251.481 460.002 252.681 463.322 254.042C471.875 257.549 480.482 259.078 488.979 254.176C490.527 253.282 491.36 251.129 492.487 249.533C493.43 248.198 494.092 246.572 495.273 245.517C500.642 240.717 499.776 235.155 499.126 228.631C498.296 220.298 499.97 211.717 500.938 203.145C501.749 214.146 503.318 225.343 502.363 236.321C500.828 253.975 487.024 262.891 469.909 258.125C464.241 256.546 459.043 253.279 453.445 250.496Z" fill="#1A484E"/>
<path d="M492.895 388.609C491.324 390.697 489.665 394.333 487.348 394.816C479.503 396.452 471.263 398.435 463.476 397.568C452.328 396.327 441.436 392.738 430.466 390.022C429.136 389.693 428.004 388.563 426.615 387.498C433.682 388.887 440.841 391.058 448.161 392.179C463.15 394.477 478.008 393.5 492.895 388.609Z" fill="#1A484E"/>
<path d="M425.529 386.75C425.332 386.819 425.009 386.637 424.568 386.196C424.769 386.125 425.086 386.313 425.529 386.75Z" fill="#1A484E"/>
<path d="M140.772 397.502C143.378 401.561 140.087 403.873 137.902 404.486C129.713 406.786 121.308 408.333 112.956 410.027C109.94 410.639 107.88 408.844 107.859 406.101C107.852 405.093 110.505 403.597 112.171 403.126C119.129 401.155 126.148 399.382 133.198 397.773C135.557 397.235 138.077 397.401 140.772 397.502Z" fill="#1E4E58"/>
</svg>
